<?xml version="1.0" encoding="UTF-8" standalone="no"?>
<!-- Created with Inkscape (http://www.inkscape.org/) -->

<svg
   version="1.1"
   id="svg1"
   width="106.56884"
   height="40"
   viewBox="0 0 106.56884 40"
   xmlns="http://www.w3.org/2000/svg"
   xmlns:svg="http://www.w3.org/2000/svg">
  <defs
     id="defs1" />
  <g
     id="text1"
     style="font-weight:bold;font-size:18.3486px;font-family:Rajdhani;-inkscape-font-specification:'Rajdhani Bold';text-align:center;text-anchor:middle;fill-opacity:0.992157;stroke-width:1.72018"
     aria-label="DayCyber">
    <path
       style="fill:#ffffff;fill-opacity:1"
       d="m 38.532212,18.880721 h 1.999998 q 0.587155,0 0.825687,-0.238532 0.25688,-0.25688 0.25688,-0.844036 V 12.20183 q 0,-0.587155 -0.25688,-0.825687 -0.238532,-0.25688 -0.825687,-0.25688 h -1.999998 q -0.201834,0 -0.201834,0.201835 v 7.357788 q 0,0.201835 0.201834,0.201835 z m -2.532106,1.633025 V 9.4862375 q 0,-0.3853206 0.38532,-0.3853206 h 4.532104 q 1.431191,0 2.220181,0.7889898 0.807338,0.7706413 0.807338,2.2018323 v 5.816506 q 0,1.431191 -0.807338,2.220181 -0.78899,0.770641 -2.220181,0.770641 h -4.532104 q -0.38532,0 -0.38532,-0.385321 z m 13.24768,0.385321 h -0.440367 q -1.449539,0 -2.238529,-0.770641 -0.78899,-0.770642 -0.78899,-2.220181 v -3.376142 q 0,-1.44954 0.78899,-2.220181 0.78899,-0.770641 2.238529,-0.770641 h 4.238527 q 0.403669,0 0.403669,0.38532 v 8.587145 q 0,0.385321 -0.403669,0.385321 h -1.541283 q -0.38532,0 -0.38532,-0.385321 v -0.605503 h -0.07339 q -0.201834,0.495412 -0.715595,0.752292 -0.513761,0.238532 -1.082567,0.238532 z m 1.871557,-3.41284 v -3.724766 q 0,-0.201834 -0.220183,-0.201834 h -1.724769 q -0.587155,0 -0.825687,0.25688 -0.238532,0.238532 -0.238532,0.825687 v 3.155959 q 0,0.587156 0.238532,0.844036 0.238532,0.238532 0.825687,0.238532 h 0.678898 q 1.266054,0 1.266054,-1.394494 z m 5.871545,6.513753 h -1.17431 q -0.366972,0 -0.366972,-0.403669 v -1.229356 q 0,-0.403669 0.366972,-0.403669 h 0.38532 q 1.155962,0 1.559631,-0.330275 0.422018,-0.311926 0.642201,-1.229356 h -0.972475 q -0.348624,0 -0.458716,-0.385321 l -2.146786,-8.091733 q -0.110091,-0.38532 0.275229,-0.38532 h 1.633026 q 0.366972,0 0.458715,0.38532 l 1.577979,6.770634 h 0.07339 l 1.559631,-6.770634 q 0.07339,-0.38532 0.458715,-0.38532 h 1.541282 q 0.458715,0 0.366972,0.403669 l -2.238529,8.954117 q -0.403669,1.522934 -1.247705,2.311924 -0.844035,0.788989 -2.293575,0.788989 z"
       id="path27" />
    <path
       style="fill:#4169e1;fill-opacity:1"
       d="m 69.137673,20.899067 h -1.999997 q -1.44954,0 -2.23853,-0.770641 -0.788989,-0.770642 -0.788989,-2.220181 v -5.816506 q 0,-1.44954 0.788989,-2.2201809 0.78899,-0.7706412 2.23853,-0.7706412 h 1.999997 q 1.431191,0 2.220181,0.7889898 0.807338,0.7706413 0.807338,2.2018323 v 0.862384 q 0,0.403669 -0.403669,0.403669 h -1.541282 q -0.385321,0 -0.385321,-0.403669 V 12.20183 q 0,-0.587155 -0.25688,-0.825687 -0.238532,-0.25688 -0.825687,-0.25688 h -1.247705 q -0.568807,0 -0.825687,0.25688 -0.238532,0.238532 -0.238532,0.825687 v 5.596323 q 0,0.587156 0.238532,0.844036 0.25688,0.238532 0.825687,0.238532 h 1.247705 q 0.587155,0 0.825687,-0.238532 0.25688,-0.25688 0.25688,-0.844036 v -0.752292 q 0,-0.403669 0.385321,-0.403669 h 1.541282 q 0.403669,0 0.403669,0.403669 v 0.862384 q 0,1.431191 -0.807338,2.220181 -0.78899,0.770641 -2.220181,0.770641 z m 6.366965,3.100913 h -1.17431 q -0.366972,0 -0.366972,-0.403669 v -1.229356 q 0,-0.403669 0.366972,-0.403669 h 0.38532 q 1.155962,0 1.559631,-0.330275 0.422018,-0.311926 0.642201,-1.229356 h -0.972475 q -0.348624,0 -0.458715,-0.385321 l -2.146787,-8.091733 q -0.110091,-0.38532 0.275229,-0.38532 h 1.633026 q 0.366972,0 0.458715,0.38532 l 1.577979,6.770634 h 0.0734 l 1.559631,-6.770634 q 0.07339,-0.38532 0.458715,-0.38532 h 1.541282 q 0.458715,0 0.366972,0.403669 l -2.238529,8.954117 q -0.403669,1.522934 -1.247705,2.311924 -0.844035,0.788989 -2.293575,0.788989 z m 9.651377,-5.119259 h 1.871558 q 0.587155,0 0.825687,-0.238532 0.25688,-0.25688 0.25688,-0.844036 v -3.192656 q 0,-0.587155 -0.25688,-0.825687 -0.238532,-0.25688 -0.825687,-0.25688 h -0.807339 q -1.266053,0 -1.266053,1.394493 v 3.761463 q 0,0.201835 0.201834,0.201835 z m -2.532106,1.633025 V 8.3853215 q 0,-0.3853206 0.38532,-0.3853206 h 1.559631 q 0.385321,0 0.385321,0.3853206 v 4.1284355 h 0.07339 q 0.201835,-0.495413 0.715596,-0.752293 0.51376,-0.25688 1.082567,-0.25688 h 0.587155 q 1.44954,0 2.23853,0.770641 0.788989,0.770641 0.788989,2.22018 v 3.41284 q 0,1.449539 -0.788989,2.220181 -0.78899,0.770641 -2.23853,0.770641 h -4.403664 q -0.38532,0 -0.38532,-0.385321 z m 16.550456,0.385321 h -4.055041 q -1.449539,0 -2.238529,-0.770641 -0.78899,-0.770642 -0.78899,-2.220181 v -3.376142 q 0,-1.44954 0.78899,-2.220181 0.78899,-0.770641 2.238529,-0.770641 h 1.44954 q 1.449539,0 2.238529,0.770641 0.78899,0.770641 0.78899,2.220181 v 2.330272 q 0,0.38532 -0.385321,0.38532 h -4.605499 q -0.220183,0 -0.220183,0.201835 v 0.403669 q 0,0.568807 0.238532,0.825687 0.25688,0.238532 0.844036,0.238532 h 3.706417 q 0.38532,0 0.38532,0.403669 v 1.211008 q 0,0.201835 -0.09174,0.293578 -0.07339,0.07339 -0.293577,0.07339 z m -4.568802,-5.211003 h 2.49541 q 0.201835,0 0.201835,-0.201834 v -0.880733 q 0,-0.587155 -0.238532,-0.825687 -0.238532,-0.238532 -0.825687,-0.238532 h -0.770641 q -0.587156,0 -0.825687,0.238532 -0.238532,0.238532 -0.238532,0.825687 v 0.880733 q 0,0.201834 0.201834,0.201834 z m 8.678877,5.211003 h -1.55963 q -0.38532,0 -0.38532,-0.385321 v -8.587145 q 0,-0.38532 0.38532,-0.38532 h 1.55963 q 0.38532,0 0.38532,0.38532 v 0.623853 h 0.0734 q 0.20183,-0.495412 0.71559,-0.752293 0.51377,-0.25688 1.08257,-0.25688 h 0.66055 q 0.36697,0 0.36697,0.38532 v 1.266054 q 0,0.220183 -0.0917,0.311926 -0.0734,0.07339 -0.27523,0.05505 h -1.26605 q -1.26606,0 -1.26606,1.431191 v 5.522928 q 0,0.385321 -0.38532,0.385321 z"
       id="path28" />
  </g>
  <g
     id="layer2"
     style="display:inline;opacity:1;fill:#051423;fill-opacity:0.992157;stroke:none"
     transform="translate(-8,-8)">
    <path
       style="display:inline;fill:#050c21;fill-opacity:1;stroke:none;stroke-opacity:1"
       d="M 8,12 24,8 V 48 C 15.505902,43.130631 10.26192,36.413157 8,28 Z M 40,12 24,8 V 48 C 32.494098,43.130631 37.73808,36.413157 40,28 Z"
       id="path9" />
    <path
       style="display:inline;opacity:1;fill:#18399a;fill-opacity:1;stroke:none"
       d="M 8,12 24,8 V 48 C 15.505902,43.130631 10.26192,36.413157 8,28 Z M 40,12 24,8 V 48 C 32.494098,43.130631 37.73808,36.413157 40,28 Z"
       id="path6"
       transform="matrix(0.875,0,0,0.875,3,3)" />
    <path
       style="display:inline;opacity:1;fill:#4169e1;fill-opacity:1;stroke:none"
       d="M 8,12 24,8 V 48 C 15.505902,43.130631 10.26192,36.413157 8,28 Z"
       id="path8"
       transform="matrix(0.875,0,0,0.875,3,3)" />
    <path
       style="color:#000000;fill:#bdcbf5;fill-opacity:1;stroke-width:0.875;-inkscape-stroke:none"
       d="M 24,9.995 10,13.495704 V 27 h 1.001465 L 11.001,14.275001 24,11 Z"
       id="path11" />
    <path
       style="display:inline;opacity:1;fill:#000000;fill-opacity:0.992157;stroke:none"
       d="M 8,12 24,8 V 48 C 15.505902,43.130631 10.26192,36.413157 8,28 Z M 40,12 24,8 V 48 C 32.494098,43.130631 37.73808,36.413157 40,28 Z"
       id="path12"
       transform="matrix(0.75,0,0,0.75,6,6)" />
    <path
       style="display:inline;opacity:1;fill:#18399a;fill-opacity:1;stroke:none;stroke-opacity:1"
       d="M 8,12.363636 H 24 V 48 C 15.505902,43.130631 10.26192,36.413157 8,28 Z m 32,0 H 24 V 48 C 32.494098,43.130631 37.73808,36.413157 40,28 Z"
       id="path22"
       transform="matrix(0.6875,0,0,0.6875,7.5,7.5)" />
    <path
       style="display:inline;opacity:1;fill:#4169e1;fill-opacity:1;stroke:none;stroke-opacity:1"
       d="M 8,12.363636 H 24 V 48 C 15.505902,43.130631 10.26192,36.413157 8,28 Z"
       id="path25"
       transform="matrix(0.6875,0,0,0.6875,7.5,7.5)" />
    <path
       style="display:inline;opacity:1;fill:#000000;fill-opacity:0.992157;stroke:none"
       d="M 8,11.2 24,8 V 48 C 15.505902,43.130631 10.26192,36.413157 8,28 Z m 32,0 L 24,8 V 48 C 32.494098,43.130631 37.73808,36.413157 40,28 Z"
       id="path23"
       transform="matrix(0.625,0,0,0.625,9,9)" />
    <path
       style="font-weight:bold;font-size:21.5413px;font-family:Rajdhani;-inkscape-font-specification:'Rajdhani Bold';text-align:center;text-anchor:middle;fill:#f9f9f9;stroke-width:1.00974"
       d="m 27.109692,25.332522 h 1.270937 q 0.689322,0 0.969359,-0.280037 0.280037,-0.301579 0.280037,-0.9909 v -6.570097 q 0,-0.689321 -0.280037,-0.969358 -0.280037,-0.301578 -0.969359,-0.301578 h -1.270937 q -0.689321,0 -0.969358,0.301578 -0.280037,0.280037 -0.280037,0.969358 v 6.570097 q 0,0.689321 0.280037,0.9909 0.280037,0.280037 0.969358,0.280037 z m 1.701763,2.369543 h -2.15413 q -1.701762,0 -2.628038,-0.904735 -0.926276,-0.904735 -0.926276,-2.606497 v -6.828592 q 0,-1.701763 0.926276,-2.606498 0.926276,-0.904734 2.628038,-0.904734 h 2.15413 q 1.680222,0 2.606497,0.926276 0.926276,0.904734 0.926276,2.584956 v 6.828592 q 0,1.680221 -0.926276,2.606497 -0.926275,0.904735 -2.606497,0.904735 z"
       id="text13"
       transform="scale(0.86568806,1.1551505)"
       aria-label="0" />
  </g>
</svg>
