<svg id="eNKfJ7CRtOv1" xmlns="http://www.w3.org/2000/svg" xmlns:xlink="http://www.w3.org/1999/xlink" viewBox="0 0 32 40" shape-rendering="geometricPrecision" text-rendering="geometricPrecision"><g transform="translate(-8-8)"><path d="M8,12L24,8v40C15.505902,43.130631,10.26192,36.413157,8,28v-16Zm32,0L24,8v40c8.494098-4.869369,13.73808-11.586843,16-20v-16Z" fill="#050c21"/><path d="M8,12L24,8v40C15.505902,43.130631,10.26192,36.413157,8,28v-16Zm32,0L24,8v40c8.494098-4.869369,13.73808-11.586843,16-20v-16Z" transform="matrix(.875 0 0 0.875 3 3)" fill="#18399a"/><path d="M8,12L24,8v40C15.505902,43.130631,10.26192,36.413157,8,28v-16Z" transform="matrix(.875 0 0 0.875 3 3)" fill="#4169e1"/><path d="M24,9.995L10,13.495704L10,27h1.001465L11.001,14.275001L24,11v-1.005Z" fill="#bdcbf5" stroke-width="0.875"/><path d="M8,12L24,8v40C15.505902,43.130631,10.26192,36.413157,8,28v-16Zm32,0L24,8v40c8.494098-4.869369,13.73808-11.586843,16-20v-16Z" transform="matrix(.75 0 0 0.75 6 6)" fill-opacity="0.992157"/><path d="M8,12.363636h16L24,48C15.505902,43.130631,10.26192,36.413157,8,28v-15.636364Zm32,0h-16L24,48c8.494098-4.869369,13.73808-11.586843,16-20v-15.636364Z" transform="matrix(.6875 0 0 0.6875 7.5 7.5)" fill="#18399a"/><path d="M8,12.363636h16L24,48C15.505902,43.130631,10.26192,36.413157,8,28v-15.636364Z" transform="matrix(.6875 0 0 0.6875 7.5 7.5)" fill="#4169e1"/><path d="M8,11.2L24,8v40C15.505902,43.130631,10.26192,36.413157,8,28v-16.8Zm32,0L24,8v40c8.494098-4.869369,13.73808-11.586843,16-20v-16.8Z" transform="matrix(.625 0 0 0.625 9 9)" fill-opacity="0.992157"/><path d="M27.109692,25.332522h1.270937q.689322,0,.969359-.280037.280037-.301579.280037-.9909v-6.570097q0-.689321-.280037-.969358-.280037-.301578-.969359-.301578h-1.270937q-.689321,0-.969358.301578-.280037.280037-.280037.969358v6.570097q0,.689321.280037.9909.280037.280037.969358.280037Zm1.701763,2.369543h-2.15413q-1.701762,0-2.628038-.904735t-.926276-2.606497v-6.828592q0-1.701763.926276-2.606498t2.628038-.904734h2.15413q1.680222,0,2.606497.926276.926276.904734.926276,2.584956v6.828592q0,1.680221-.926276,2.606497-.926275.904735-2.606497.904735Z" transform="matrix(.865688 0 0 1.155151 0 0)" fill="#f9f9f9" fill-opacity="0.992157" stroke-width="1.00974"/></g></svg>
