<svg id="eASlrKuTGxH1" xmlns="http://www.w3.org/2000/svg" xmlns:xlink="http://www.w3.org/1999/xlink" viewBox="0 0 106.56884 40" shape-rendering="geometricPrecision" text-rendering="geometricPrecision"><g><path d="M38.532212,18.880721h1.999998q.587155,0,.825687-.238532.25688-.25688.25688-.844036v-5.596323q0-.587155-.25688-.825687-.238532-.25688-.825687-.25688h-1.999998q-.201834,0-.201834.201835v7.357788q0,.201835.201834.201835Zm-2.532106,1.633025v-11.027508q0-.385321.38532-.385321h4.532104q1.431191,0,2.220181.78899.807338.770641.807338,2.201832v5.816506q0,1.431191-.807338,2.220181-.78899.770641-2.220181.770641h-4.532104q-.38532,0-.38532-.385321Zm13.24768.385321h-.440367q-1.449539,0-2.238529-.770641t-.78899-2.220181v-3.376142q0-1.44954.78899-2.220181t2.238529-.770641h4.238527q.403669,0,.403669.38532v8.587145q0,.385321-.403669.385321h-1.541283q-.38532,0-.38532-.385321v-.605503h-.07339q-.201834.495412-.715595.752292-.513761.238532-1.082567.238532Zm1.871557-3.41284v-3.724766q0-.201834-.220183-.201834h-1.724769q-.587155,0-.825687.25688-.238532.238532-.238532.825687v3.155959q0,.587156.238532.844036.238532.238532.825687.238532h.678898q1.266054,0,1.266054-1.394494Zm5.871545,6.513753h-1.17431q-.366972,0-.366972-.403669v-1.229356q0-.403669.366972-.403669h.38532q1.155962,0,1.559631-.330275.422018-.311926.642201-1.229356h-.972475q-.348624,0-.458716-.385321l-2.146786-8.091733q-.110091-.38532.275229-.38532h1.633026q.366972,0,.458715.38532l1.577979,6.770634h.07339l1.559631-6.770634q.07339-.38532.458715-.38532h1.541282q.458715,0,.366972.403669l-2.238529,8.954117q-.403669,1.522934-1.247705,2.311924t-2.293575.788989Z" fill="#050c21" stroke-width="1.72018"/><path d="M69.137673,20.899067h-1.999997q-1.44954,0-2.23853-.770641t-.788989-2.220181v-5.816506q0-1.44954.788989-2.220181t2.23853-.770641h1.999997q1.431191,0,2.220181.78899.807338.770641.807338,2.201832v.862384q0,.403669-.403669.403669h-1.541282q-.385321,0-.385321-.403669v-.752293q0-.587155-.25688-.825687-.238532-.25688-.825687-.25688h-1.247705q-.568807,0-.825687.25688-.238532.238532-.238532.825687v5.596323q0,.587156.238532.844036.25688.238532.825687.238532h1.247705q.587155,0,.825687-.238532.25688-.25688.25688-.844036v-.752292q0-.403669.385321-.403669h1.541282q.403669,0,.403669.403669v.862384q0,1.431191-.807338,2.220181-.78899.770641-2.220181.770641Zm6.366965,3.100913h-1.17431q-.366972,0-.366972-.403669v-1.229356q0-.403669.366972-.403669h.38532q1.155962,0,1.559631-.330275.422018-.311926.642201-1.229356h-.972475q-.348624,0-.458715-.385321l-2.146787-8.091733q-.110091-.38532.275229-.38532h1.633026q.366972,0,.458715.38532l1.577979,6.770634h.0734l1.559631-6.770634q.07339-.38532.458715-.38532h1.541282q.458715,0,.366972.403669l-2.238529,8.954117q-.403669,1.522934-1.247705,2.311924t-2.293575.788989Zm9.651377-5.119259h1.871558q.587155,0,.825687-.238532.25688-.25688.25688-.844036v-3.192656q0-.587155-.25688-.825687-.238532-.25688-.825687-.25688h-.807339q-1.266053,0-1.266053,1.394493v3.761463q0,.201835.201834.201835Zm-2.532106,1.633025v-12.128424q0-.385321.38532-.385321h1.559631q.385321,0,.385321.385321v4.128435h.07339q.201835-.495413.715596-.752293t1.082567-.25688h.587155q1.44954,0,2.23853.770641t.788989,2.22018v3.41284q0,1.449539-.788989,2.220181t-2.23853.770641h-4.403664q-.38532,0-.38532-.385321Zm16.550456.385321h-4.055041q-1.449539,0-2.238529-.770641t-.78899-2.220181v-3.376142q0-1.44954.78899-2.220181t2.238529-.770641h1.44954q1.449539,0,2.238529.770641t.78899,2.220181v2.330272q0,.38532-.385321.38532h-4.605499q-.220183,0-.220183.201835v.403669q0,.568807.238532.825687.25688.238532.844036.238532h3.706417q.38532,0,.38532.403669v1.211008q0,.201835-.09174.293578-.07339.07339-.293577.07339Zm-4.568802-5.211003h2.49541q.201835,0,.201835-.201834v-.880733q0-.587155-.238532-.825687t-.825687-.238532h-.770641q-.587156,0-.825687.238532t-.238532.825687v.880733q0,.201834.201834.201834Zm8.678877,5.211003h-1.55963q-.38532,0-.38532-.385321v-8.587145q0-.38532.38532-.38532h1.55963q.38532,0,.38532.38532v.623853h.0734q.20183-.495412.71559-.752293t1.08257-.25688h.66055q.36697,0,.36697.38532v1.266054q0,.220183-.0917.311926-.0734.07339-.27523.05505h-1.26605q-1.26606,0-1.26606,1.431191v5.522928q0,.385321-.38532.385321Z" fill="#4169e1" stroke-width="1.72018"/></g><g transform="translate(-8-8)"><path d="M8,12L24,8v40C15.505902,43.130631,10.26192,36.413157,8,28v-16Zm32,0L24,8v40c8.494098-4.869369,13.73808-11.586843,16-20v-16Z" fill="#050c21"/><path d="M8,12L24,8v40C15.505902,43.130631,10.26192,36.413157,8,28v-16Zm32,0L24,8v40c8.494098-4.869369,13.73808-11.586843,16-20v-16Z" transform="matrix(.875 0 0 0.875 3 3)" fill="#18399a"/><path d="M8,12L24,8v40C15.505902,43.130631,10.26192,36.413157,8,28v-16Z" transform="matrix(.875 0 0 0.875 3 3)" fill="#4169e1"/><path d="M24,9.995L10,13.495704L10,27h1.001465L11.001,14.275001L24,11v-1.005Z" fill="#bdcbf5" stroke-width="0.875"/><path d="M8,12L24,8v40C15.505902,43.130631,10.26192,36.413157,8,28v-16Zm32,0L24,8v40c8.494098-4.869369,13.73808-11.586843,16-20v-16Z" transform="matrix(.75 0 0 0.75 6 6)" fill-opacity="0.992157"/><path d="M8,12.363636h16L24,48C15.505902,43.130631,10.26192,36.413157,8,28v-15.636364Zm32,0h-16L24,48c8.494098-4.869369,13.73808-11.586843,16-20v-15.636364Z" transform="matrix(.6875 0 0 0.6875 7.5 7.5)" fill="#18399a"/><path d="M8,12.363636h16L24,48C15.505902,43.130631,10.26192,36.413157,8,28v-15.636364Z" transform="matrix(.6875 0 0 0.6875 7.5 7.5)" fill="#4169e1"/><path d="M8,11.2L24,8v40C15.505902,43.130631,10.26192,36.413157,8,28v-16.8Zm32,0L24,8v40c8.494098-4.869369,13.73808-11.586843,16-20v-16.8Z" transform="matrix(.625 0 0 0.625 9 9)" fill-opacity="0.992157"/><path d="M27.109692,25.332522h1.270937q.689322,0,.969359-.280037.280037-.301579.280037-.9909v-6.570097q0-.689321-.280037-.969358-.280037-.301578-.969359-.301578h-1.270937q-.689321,0-.969358.301578-.280037.280037-.280037.969358v6.570097q0,.689321.280037.9909.280037.280037.969358.280037Zm1.701763,2.369543h-2.15413q-1.701762,0-2.628038-.904735t-.926276-2.606497v-6.828592q0-1.701763.926276-2.606498t2.628038-.904734h2.15413q1.680222,0,2.606497.926276.926276.904734.926276,2.584956v6.828592q0,1.680221-.926276,2.606497-.926275.904735-2.606497.904735Z" transform="matrix(.865688 0 0 1.155151 0 0)" fill="#f9f9f9" fill-opacity="0.992157" stroke-width="1.00974"/></g></svg>
